# xmcd CD database file
#
# Track frame offsets:
#	150
#	19013
#	39821
#	67076
#	90819
#	121495
#	140205
#	162213
#	185214
#	202848
#	225185
#	252985
#	274443
#	295246
#	314167
#
# Disc length: 4609 seconds
#
# Revision: 0
# Processed by: cddbd v1.5.2PL0 Copyright (c) Steve Scherf et al.
# Submitted via: CDex 1.51
#
DISCID=d911ff0f
DTITLE=Various Artist - Robert Charlemagne's Salsa Nation
DYEAR=2005
DGENRE=Salsa
TTITLE0=El Swing
TTITLE1=Lob Loco Mi Habana
TTITLE2=El Loco
TTITLE3=Gombo
TTITLE4=Lady
TTITLE5=El Matrimonio
TTITLE6=Timba Tumbero
TTITLE7=Culebra
TTITLE8=Lloraras
TTITLE9=Baila me Pachanga
TTITLE10=Un Monton De Estrellas
TTITLE11=A Prueba De Fuego
TTITLE12=Busca Haber
TTITLE13=Ave Maria Lola
TTITLE14=Mi Libere Remix
EXTD=YEAR: 2005
EXTT0=
EXTT1=
EXTT2=
EXTT3=
EXTT4=
EXTT5=
EXTT6=
EXTT7=
EXTT8=
EXTT9=
EXTT10=
EXTT11=
EXTT12=
EXTT13=
EXTT14=
PLAYORDER=
